<svg xmlns="http://www.w3.org/2000/svg" xmlns:xlink="http://www.w3.org/1999/xlink" width="0" height="0" style="position:absolute">
	
		<symbol id="icon-login" viewBox="0 0 512 512">
			<path d="M131.5 472H60.693c-8.538 0-13.689-4.765-15.999-7.606-3.988-4.906-5.533-11.29-4.236-17.519 20.769-99.761 108.809-172.616 210.445-174.98 1.693.063 3.39.105 5.097.105 1.722 0 3.434-.043 5.142-.107 24.853.567 49.129 5.24 72.236 13.917 10.34 3.885 21.871-1.352 25.754-11.693 3.883-10.34-1.352-21.871-11.693-25.754a258.015 258.015 0 0 0-9.995-3.512C370.545 220.021 392 180.469 392 136 392 61.01 330.991 0 256 0S120 61.01 120 136c0 44.509 21.492 84.092 54.643 108.918-30.371 9.998-58.871 25.546-83.813 46.062-45.732 37.617-77.529 90.086-89.532 147.743-3.762 18.066.744 36.622 12.363 50.908C25.221 503.847 42.364 512 60.693 512H131.5c11.046 0 20-8.954 20-20s-8.954-20-20-20zM160 136c0-52.935 43.065-96 96-96s96 43.065 96 96c0 51.367-40.554 93.438-91.326 95.885a259.819 259.819 0 0 0-4.674-.052c-1.564 0-3.127.023-4.689.051C200.546 229.43 160 187.362 160 136z"></path><path d="M496.689 344.607c-8.561-19.15-27.845-31.558-49.176-31.607h-62.505c-22.5 0-42.13 13.26-50.029 33.807A239.822 239.822 0 0 0 331.302 357H200.356a20.003 20.003 0 0 0-14.35 6.068l-34.356 35.388c-7.567 7.794-7.529 20.203.085 27.95l35 35.612a20 20 0 0 0 14.264 5.981h65c11.046 0 20-8.954 20-20s-8.954-20-20-20h-56.614l-15.428-15.698L208.814 397h137.491a20 20 0 0 0 19.426-15.244c1.618-6.607 3.648-12.959 6.584-20.596 1.936-5.036 6.798-8.16 12.741-8.16h62.41c5.656.013 10.524 3.053 12.705 7.932 5.369 12.012 11.78 30.608 11.828 50.986.048 20.529-6.356 39.551-11.739 51.894-2.17 4.978-7.079 8.188-12.56 8.188h-63.158c-5.533-.013-10.716-3.573-12.896-8.858-2.339-5.671-4.366-12.146-6.197-19.797-2.571-10.742-13.367-17.366-24.105-14.796-10.743 2.571-17.367 13.364-14.796 24.106 2.321 9.699 4.978 18.118 8.121 25.738 8.399 20.364 27.939 33.555 49.827 33.606h63.251a53.623 53.623 0 0 0 49.18-32.201c6.912-15.851 15.137-40.511 15.072-67.975-.064-27.389-8.361-51.67-15.31-67.216z"></path><circle cx="431" cy="412" r="20"></circle>
		</symbol>
	
		<symbol id="icon-phone-receiver" viewBox="0 0 578 578">
			<path d="M577.83 456.128c1.225 9.385-1.635 17.545-8.568 24.48l-81.396 80.781c-3.672 4.08-8.465 7.551-14.381 10.404-5.916 2.857-11.729 4.693-17.439 5.508-.408 0-1.635.105-3.676.309-2.037.203-4.689.307-7.953.307-7.754 0-20.301-1.326-37.641-3.979s-38.555-9.182-63.645-19.584c-25.096-10.404-53.553-26.012-85.376-46.818-31.823-20.805-65.688-49.367-101.592-85.68-28.56-28.152-52.224-55.08-70.992-80.783-18.768-25.705-33.864-49.471-45.288-71.299-11.425-21.828-19.993-41.616-25.705-59.364S4.59 177.362 2.55 164.51-.306 141.56.102 134.216c.408-7.344.612-11.424.612-12.24.816-5.712 2.652-11.526 5.508-17.442s6.324-10.71 10.404-14.382L98.022 8.756c5.712-5.712 12.24-8.568 19.584-8.568 5.304 0 9.996 1.53 14.076 4.59s7.548 6.834 10.404 11.322l65.484 124.236c3.672 6.528 4.692 13.668 3.06 21.42-1.632 7.752-5.1 14.28-10.404 19.584l-29.988 29.988c-.816.816-1.53 2.142-2.142 3.978s-.918 3.366-.918 4.59c1.632 8.568 5.304 18.36 11.016 29.376 4.896 9.792 12.444 21.726 22.644 35.802s24.684 30.293 43.452 48.653c18.36 18.77 34.68 33.354 48.96 43.76 14.277 10.4 26.215 18.053 35.803 22.949 9.588 4.896 16.932 7.854 22.031 8.871l7.648 1.531c.816 0 2.145-.307 3.979-.918 1.836-.613 3.162-1.326 3.979-2.143l34.883-35.496c7.348-6.527 15.912-9.791 25.705-9.791 6.938 0 12.443 1.223 16.523 3.672h.611l118.115 69.768c8.571 5.308 13.67 12.038 15.303 20.198z"></path>
		</symbol>
	
</svg>
